HIERARCHY
ROOT Pelvis
{
	OFFSET 0.000000 0.000000 0.000000
	CHANNELS 6 Xposition Yposition Zposition Xrotation Yrotation Zrotation
	JOINT LeftUpLeg_virtual
	{
		OFFSET 0.000000 0.000000 0.000000
		CHANNELS 3 Xrotation Yrotation Zrotation
		JOINT LeftUpLeg
		{
			OFFSET 18.735201 -5.666702 -4.541200
			CHANNELS 3 Xrotation Yrotation Zrotation
			JOINT LeftLeg
			{
				OFFSET -0.021200 -31.938179 0.493100
				CHANNELS 3 Xrotation Yrotation Zrotation
				JOINT LeftFoot
				{
					OFFSET 0.021200 -31.938179 -4.336299
					CHANNELS 3 Xrotation Yrotation Zrotation
					JOINT LeftToeBase
					{
						OFFSET 0.943001 -26.722000 15.023500
						CHANNELS 3 Xrotation Yrotation Zrotation
						End Site
						{
							OFFSET 0 0 0
						}
					}
				}
			}
		}
	}
	JOINT RightUpLeg_virtual
	{
		OFFSET 0.000000 0.000000 0.000000
		CHANNELS 3 Xrotation Yrotation Zrotation
		JOINT RightUpLeg
		{
			OFFSET -18.735201 -5.666702 -4.541200
			CHANNELS 3 Xrotation Yrotation Zrotation
			JOINT RightLeg
			{
				OFFSET 0.018946 -31.938133 0.493100
				CHANNELS 3 Xrotation Yrotation Zrotation
				JOINT RightFoot
				{
					OFFSET -0.018946 -31.938126 -4.336299
					CHANNELS 3 Xrotation Yrotation Zrotation
					JOINT RightToeBase
					{
						OFFSET -0.943001 -26.722004 15.023500
						CHANNELS 3 Xrotation Yrotation Zrotation
						End Site
						{
							OFFSET 0 0 0
						}
					}
				}
			}
		}
	}
	JOINT Hips_virtual
	{
		OFFSET 0.000000 0.000000 0.000000
		CHANNELS 3 Xrotation Yrotation Zrotation
		JOINT Hips
		{
			OFFSET -0.000000 -0.000000 -0.000000
			CHANNELS 3 Xrotation Yrotation Zrotation
			JOINT Spine
			{
				OFFSET 0.000000 10.199997 -0.299500
				CHANNELS 3 Xrotation Yrotation Zrotation
				JOINT Spine1
				{
					OFFSET 0.000000 11.900002 -1.516600
					CHANNELS 3 Xrotation Yrotation Zrotation
					JOINT Spine2
					{
						OFFSET 0.000000 13.600006 -2.842500
						CHANNELS 3 Xrotation Yrotation Zrotation
						JOINT Neck_virtual
						{
							OFFSET 0.000000 0.000000 0.000000
							CHANNELS 3 Xrotation Yrotation Zrotation
							JOINT Neck
							{
								OFFSET 0.000000 9.624100 -2.890100
								CHANNELS 3 Xrotation Yrotation Zrotation
								JOINT Head
								{
									OFFSET 0.000000 14.068802 -1.351900
									CHANNELS 3 Xrotation Yrotation Zrotation
									End Site
									{
										OFFSET 0 0 0
									}
								}
							}
						}
						JOINT LeftShoulder_virtual
						{
							OFFSET 0.000000 0.000000 0.000000
							CHANNELS 3 Xrotation Yrotation Zrotation
							JOINT LeftShoulder
							{
								OFFSET 15.263000 10.923401 -0.547700
								CHANNELS 3 Xrotation Yrotation Zrotation
								JOINT LeftArm
								{
									OFFSET 25.438599 -2.830597 -13.032500
									CHANNELS 3 Xrotation Yrotation Zrotation
									JOINT LeftForeArm
									{
										OFFSET 29.960503 0.000000 0.000000
										CHANNELS 3 Xrotation Yrotation Zrotation
										JOINT LeftHand
										{
											OFFSET 27.849251 0.000000 0.000000
											CHANNELS 3 Xrotation Yrotation Zrotation
											End Site
											{
												OFFSET 0 0 0
											}
										}
									}
								}
							}
						}
						JOINT RightShoulder_virtual
						{
							OFFSET 0.000000 0.000000 0.000000
							CHANNELS 3 Xrotation Yrotation Zrotation
							JOINT RightShoulder
							{
								OFFSET -15.263000 10.923401 -0.547700
								CHANNELS 3 Xrotation Yrotation Zrotation
								JOINT RightArm
								{
									OFFSET -25.438599 -2.830597 -13.032500
									CHANNELS 3 Xrotation Yrotation Zrotation
									JOINT RightForeArm
									{
										OFFSET -29.960503 0.000000 0.000000
										CHANNELS 3 Xrotation Yrotation Zrotation
										JOINT RightHand
										{
											OFFSET -27.849251 0.000000 0.000000
											CHANNELS 3 Xrotation Yrotation Zrotation
											End Site
											{
												OFFSET 0 0 0
											}
										}
									}
								}
							}
						}
					}
				}
			}
		}
	}
}
MOTION
Frames: 4
Frame Time: 0.03333333
15.868114 84.146164 -24.322327 0.000000 0.000000 0.000000 155.492275 -33.176370 160.410462 -9.064003 37.105122 20.434302 21.337823 21.307514 -0.326103 -14.839440 15.012495 -33.756916 0.000000 0.000000 0.000000 155.492275 -33.176370 160.410462 -67.819011 17.316188 12.695046 38.179067 -0.104256 2.838709 3.642767 -6.019392 7.002390 0.000000 0.000000 0.000000 155.492275 -33.176370 160.410462 0.000000 0.000004 -0.000001 36.380084 3.353072 9.172625 -9.351827 -3.570435 1.181060 0.000000 0.000000 0.000000 -9.435596 -2.352110 2.017856 -2.379832 -1.584632 -1.006919 0.000000 0.000000 0.000000 -9.435596 -2.352110 2.017856 5.744833 -10.522764 24.025843 -67.510594 -3.722630 -45.267991 1.348468 -68.597646 4.202981 0.000000 0.000000 0.000000 -9.435596 -2.352110 2.017856 8.424593 8.375889 -5.507272 -1.238763 1.267739 68.329178 13.833014 26.209113 -4.662800 0.000000 0.000000 0.000000 
15.810968 84.255859 -24.370201 0.000000 0.000000 0.000000 155.645395 -33.371382 160.582529 -8.220817 37.070510 19.859028 20.361974 21.485914 -0.224467 -14.416086 14.903748 -33.632265 0.000000 0.000000 0.000000 155.645395 -33.371382 160.582529 -67.419950 17.211471 12.455498 38.176294 -0.065534 2.840488 3.514836 -5.918177 6.904108 0.000000 0.000000 0.000000 155.645395 -33.371382 160.582529 0.000002 0.000000 0.000000 36.339028 3.387898 9.220554 -9.302402 -3.573407 1.240603 0.000000 0.000000 0.000000 -9.386063 -2.346659 2.077848 -2.453660 -1.940286 -0.915823 0.000000 0.000000 0.000000 -9.386063 -2.346659 2.077848 5.600711 -10.392676 23.545703 -67.435038 -3.677393 -45.248142 1.632218 -68.445271 4.470495 0.000000 0.000000 0.000000 -9.386063 -2.346659 2.077848 8.387661 8.109953 -5.631593 -1.325125 1.460308 68.468309 13.559642 26.271836 -4.380977 0.000000 0.000000 0.000000 
15.763866 84.352730 -24.401527 0.000000 0.000000 0.000000 155.773133 -33.558229 160.767203 -7.423341 37.016381 19.268604 19.446015 21.654141 -0.127313 -14.020918 14.810162 -33.497228 0.000000 0.000000 0.000000 155.773133 -33.558229 160.767203 -67.081494 17.118570 12.158252 38.256842 -1.131771 2.760892 3.411020 -4.666127 6.868806 0.000000 0.000000 0.000000 155.773133 -33.558229 160.767203 -0.000001 -0.000002 0.000001 36.266071 3.412754 9.267724 -9.262706 -3.564026 1.268314 0.000000 0.000000 0.000000 -9.346574 -2.337918 2.102959 -2.502135 -2.160321 -0.866470 0.000000 0.000000 0.000000 -9.346574 -2.337918 2.102959 5.455861 -10.276588 23.062287 -67.354510 -3.637411 -45.228068 1.900067 -68.291701 4.723997 0.000000 0.000000 0.000000 -9.346574 -2.337918 2.102959 8.353427 7.968177 -5.710315 -1.302528 1.649690 68.639248 13.413290 26.330427 -4.243880 0.000000 0.000000 0.000000 
15.721527 84.444420 -24.424931 0.000000 0.000000 0.000000 155.889765 -33.741404 160.957520 -6.642105 36.951501 18.669199 18.545463 21.819336 -0.030167 -13.633956 14.720849 -33.354761 0.000000 0.000000 0.000000 155.889765 -33.741404 160.957520 -66.769669 17.011167 11.889759 38.295327 -0.937503 2.776961 3.299963 -4.684227 6.778145 0.000000 0.000000 0.000000 155.889765 -33.741404 160.957520 -0.000001 0.000002 0.000000 36.179027 3.434248 9.314063 -9.227466 -3.548995 1.281479 0.000000 0.000000 0.000000 -9.311683 -2.327703 2.112158 -2.539258 -2.318461 -0.836698 0.000000 0.000000 0.000000 -9.311683 -2.327703 2.112158 5.312887 -10.162606 22.584277 -67.273982 -3.603538 -45.213831 2.101652 -68.140467 4.908480 0.000000 0.000000 0.000000 -9.311683 -2.327703 2.112158 8.320665 7.882603 -5.768236 -1.231537 1.837843 68.823991 13.324715 26.387473 -4.172557 0.000000 0.000000 0.000000 
